<?xml version="1.0" encoding="UTF-8" standalone="no"?>
<!-- Created with Inkscape (http://www.inkscape.org/) -->

<svg
   width="210mm"
   height="297mm"
   viewBox="0 0 210 297"
   version="1.1"
   id="svg1"
   inkscape:version="1.3.2 (091e20e, 2023-11-25)"
   sodipodi:docname="h.svg"
   xmlns:inkscape="http://www.inkscape.org/namespaces/inkscape"
   xmlns:sodipodi="http://sodipodi.sourceforge.net/DTD/sodipodi-0.dtd"
   xmlns="http://www.w3.org/2000/svg"
   xmlns:svg="http://www.w3.org/2000/svg">
  <sodipodi:namedview
     id="namedview1"
     pagecolor="#ffffff"
     bordercolor="#000000"
     borderopacity="0.25"
     inkscape:showpageshadow="2"
     inkscape:pageopacity="0.0"
     inkscape:pagecheckerboard="0"
     inkscape:deskcolor="#d1d1d1"
     inkscape:document-units="mm"
     inkscape:zoom="0.77856551"
     inkscape:cx="284.49757"
     inkscape:cy="485.50828"
     inkscape:window-width="1712"
     inkscape:window-height="969"
     inkscape:window-x="0"
     inkscape:window-y="39"
     inkscape:window-maximized="1"
     inkscape:current-layer="layer1" />
  <defs
     id="defs1" />
  <g
     inkscape:label="Katman 1"
     inkscape:groupmode="layer"
     id="layer1">
    <path
       style="fill:#0000ff;stroke-width:0.264583"
       id="path1"
       d="m 31.11772,39.276141 c -1.018379,0.05487 -2.051585,-0.100163 -3.041783,0.183923 -0.113395,0.10188 -0.269928,0.170354 -0.34018,0.305641 -0.517842,0.997186 0.948854,2.33603 1.446998,2.880212 0.958583,1.047176 2.863467,2.85578 3.832993,3.793567 2.026912,2.002086 4.137572,3.942114 5.985848,6.117261 0.813803,0.957726 1.824287,2.24667 2.312787,3.443137 0.215389,0.52755 0.280278,1.104651 0.420417,1.656977 -0.0526,0.577564 -0.01966,1.169432 -0.1578,1.732693 -0.834755,3.403586 -4.140388,6.533398 -6.554308,8.896609 -2.452092,2.54553 -5.78548,4.777584 -7.63251,7.844856 -0.293203,0.486907 -0.488021,1.026657 -0.73203,1.539986 -0.09987,0.590063 -0.279218,1.172086 -0.299597,1.770195 -0.05082,1.491609 0.34588,3.037528 0.719199,4.456506 0.69433,2.63915 1.595385,5.231204 2.404237,7.836509 1.046001,3.225951 1.696659,6.518568 1.031529,9.895337 -0.412491,2.09417 -0.873803,2.98583 -1.659306,4.95574 -1.216326,2.93126 -3.094141,5.66259 -3.686057,8.83142 -0.431838,2.31185 -0.195489,2.82367 0.05715,5.18645 1.205679,5.55338 4.548672,10.21697 7.181358,15.14637 0.223935,0.59253 0.516781,1.16341 0.671809,1.77757 0.842214,3.33661 -1.126318,6.43898 -2.714466,9.19986 -1.524352,2.52864 -3.196016,5.0932 -3.594349,8.09168 -0.308525,2.32244 -0.02408,3.16882 0.298175,5.5001 0.52343,2.79567 1.660657,5.38294 2.809428,7.96057 0,0 3.257512,1.48786 3.257512,1.48786 v 0 c -1.186992,-2.5446 -2.354876,-5.09925 -2.884302,-7.8818 -0.316881,-2.26516 -0.598339,-3.09009 -0.292203,-5.34439 0.401405,-2.95585 2.079027,-5.48717 3.568605,-7.98772 1.345567,-2.31657 3.00332,-4.84579 3.097665,-7.62455 0.05565,-1.63908 -0.323377,-2.17744 -0.892818,-3.68748 -0.361209,-0.66125 -0.706766,-1.33129 -1.08363,-1.98374 -2.417594,-4.18549 -5.21842,-8.24687 -6.222254,-13.0669 -0.253648,-2.30403 -0.483304,-2.77874 -0.06801,-5.03455 0.5812,-3.15696 2.423663,-5.89951 3.622011,-8.82539 0.786894,-1.96315 1.280247,-2.94503 1.715791,-5.02873 0.741524,-3.547557 0.09895,-6.658284 -0.994317,-10.047491 -0.801172,-2.587484 -1.689309,-5.162801 -2.36437,-7.787325 -0.342466,-1.331447 -0.724921,-2.880172 -0.689621,-4.282823 0.01421,-0.564854 0.173924,-1.1166 0.260888,-1.6749 0.225774,-0.496708 0.403566,-1.018162 0.677325,-1.490126 1.800762,-3.104533 5.058103,-5.307242 7.516958,-7.841024 2.457701,-2.400163 5.839391,-5.646706 6.76548,-9.067909 0.161735,-0.597479 0.147056,-1.229201 0.220583,-1.843802 -0.135712,-0.587025 -0.187886,-1.199877 -0.407135,-1.761079 -0.48695,-1.246426 -1.53298,-2.5751 -2.376758,-3.564414 -1.861759,-2.182881 -3.991848,-4.125169 -6.016019,-6.150959 -1.046218,-1.025734 -2.65399,-2.568358 -3.674213,-3.685797 -0.484227,-0.53037 -1.702339,-1.894041 -1.541012,-2.244177 0.04089,-0.08874 0.161618,-0.109831 0.242427,-0.164748 0.987443,-0.203182 2.005279,-0.07779 3.006497,-0.0909 z" />
    <path
       style="fill:#0000ff;stroke-width:0.264583"
       id="path2"
       d="m 104.06801,41.660688 c -1.02794,0.127481 -3.39337,-0.240271 -4.189883,0.324734 -0.233066,0.165324 -0.367469,0.437692 -0.551203,0.656539 -0.06834,0.380863 -0.212911,0.755722 -0.205018,1.142585 0.04418,2.165162 1.238134,4.339251 2.270524,6.153705 1.13997,2.003558 2.0851,3.304461 3.38647,5.212919 2.09182,3.173426 4.71232,6.196939 5.81507,9.914702 0.67522,2.276417 0.52142,3.138329 0.5559,5.504992 -0.47306,5.776042 -2.78487,11.146724 -4.81818,16.507 -1.1422,2.88123 -2.19121,5.813536 -2.53829,8.911767 -0.2073,1.850443 -0.20009,3.587379 -0.24058,5.449549 0.12013,4.66953 -0.44587,9.28892 -1.66691,13.79481 -0.78881,2.91087 -1.42069,4.5453 -2.415413,7.37467 -0.22743,0.61145 -2.057244,5.5148 -2.316943,6.27264 -0.608171,1.77476 -1.183666,3.43929 -1.303967,5.32903 -0.148741,2.33653 0.211571,3.02144 0.774734,5.28218 0.904849,2.60783 2.33417,4.96035 3.770009,7.29761 0.67925,1.1057 1.81435,2.75107 2.23634,4.02356 0.22288,0.67206 0.2568,1.39263 0.3852,2.08895 -0.13533,0.84002 -0.17377,1.7015 -0.40598,2.52005 -0.61648,2.1732 -1.82117,4.40986 -2.918617,6.34806 -1.83983,3.24932 -3.946564,6.3336 -6.06371,9.40456 -0.547026,0.77155 -1.094049,1.5431 -1.641073,2.31465 0,0 3.05951,1.7979 3.05951,1.7979 v 0 c 0.520848,-0.7878 1.041693,-1.57561 1.562542,-2.36341 2.061704,-3.11775 4.143438,-6.23436 6.031718,-9.46197 1.09884,-1.87823 2.45345,-4.24517 3.13467,-6.35476 0.27184,-0.84185 0.35007,-1.73432 0.52511,-2.60148 -0.11632,-0.72848 -0.12746,-1.48176 -0.34896,-2.18542 -0.41899,-1.33105 -1.56344,-2.93795 -2.28213,-4.08347 -1.44763,-2.30737 -2.89941,-4.62539 -3.826531,-7.20507 -0.569756,-2.1832 -0.932071,-2.88014 -0.827495,-5.1454 0.0867,-1.87797 0.622261,-3.54005 1.195156,-5.31372 0.33932,-1.05051 1.89782,-5.39759 2.22815,-6.32459 1.27449,-3.67808 2.58033,-7.35933 3.36745,-11.18201 0.67821,-3.2938 0.90157,-6.65227 0.90286,-10.00853 0.0631,-1.89942 0.0726,-3.48786 0.295,-5.367489 0.36329,-3.070778 1.3585,-6.00084 2.44902,-8.878652 2.01114,-5.415081 4.31365,-10.826167 4.85567,-16.634293 0.004,-2.372815 0.17424,-3.318959 -0.47478,-5.61423 -1.06602,-3.769972 -3.72957,-6.818696 -5.84788,-10.013374 -1.30896,-1.914927 -2.20232,-3.131155 -3.33821,-5.143536 -0.98217,-1.740054 -2.05301,-3.767582 -2.13995,-5.825789 -0.0133,-0.314389 0.0943,-0.622242 0.14137,-0.933363 0.1465,-0.158575 0.25435,-0.364678 0.43948,-0.475726 0.79058,-0.474205 3.18878,-0.126257 4.16868,-0.19399 z" />
    <path
       style="fill:#0000ff;stroke-width:0.264583"
       id="path3"
       d="m 32.68963,104.64458 c -0.0036,-0.18752 -0.0327,-0.46021 0.05229,-0.64271 0.269451,-0.57862 1.240432,-0.60431 1.752277,-0.6613 -0.140018,-0.31665 2.615999,0.97069 1.930857,0.82664 -0.626925,-0.13182 -1.736021,-1.40379 -1.763625,-0.76375 -0.03309,0.76713 1.164397,1.00163 1.731015,1.51983 0.859539,0.78609 2.781843,2.65733 3.626216,3.47434 1.430223,1.27935 2.772513,2.7571 4.471926,3.70179 1.64361,0.91367 3.530148,2.72275 5.640448,2.27341 0.40236,-0.0857 0.761395,-0.31178 1.14209,-0.46767 0.38798,-0.28924 0.798153,-0.55088 1.163939,-0.86771 0.701622,-0.60774 2.085261,-2.0997 2.695813,-2.722 1.465612,-1.49383 2.984971,-2.89096 4.575855,-4.24891 0.920922,-0.60134 1.973139,-1.818 3.140319,-1.99888 0.202901,-0.0315 0.781547,0.20903 0.607888,0.0995 -3.865137,-2.43829 -3.472757,-2.13497 -2.406674,-1.05713 0.50283,0.64686 0.92741,1.36476 1.551956,1.90962 0.26856,0.23429 0.554307,0.45262 0.861745,0.6329 4.26338,2.50001 3.024439,1.96682 5.883474,2.98981 3.147438,0.99738 6.372825,1.70952 9.590135,2.43611 1.323334,0.27221 2.686566,0.74038 4.047675,0.40611 0.756459,-0.18577 1.077402,-0.42848 1.757114,-0.80861 1.736309,-1.06466 3.24305,-2.45656 4.96924,-3.53265 0.206213,-0.11192 0.60843,-0.39603 0.902057,-0.36054 0.09142,0.0111 0.312915,0.19364 0.231185,0.15122 -1.053267,-0.5467 -2.044539,-1.22536 -3.146941,-1.66463 -0.188108,-0.075 0.201028,0.3516 0.297934,0.5294 0.128601,0.23595 0.252357,0.4745 0.378537,0.71176 1.880198,3.15824 4.25455,3.9945 7.519495,5.77359 1.757373,0.45445 3.14393,-0.46598 4.71741,-1.1123 1.11297,-0.40094 2.24703,-0.73386 3.37819,-1.07758 0,0 -3.25065,-2.20845 -3.25065,-2.20845 v 0 c -1.109295,0.38902 -2.235058,0.73078 -3.337238,1.14085 -1.572223,0.65246 -2.804607,1.44 -4.538625,0.86195 0.840166,0.51883 1.683446,1.03264 2.520495,1.55648 0.267136,0.16718 -0.550916,-0.30799 -0.81066,-0.48644 -1.089009,-0.74817 -1.976924,-1.73623 -2.66496,-2.85936 -0.120282,-0.22823 -0.252042,-0.45077 -0.360849,-0.68468 -0.08898,-0.19128 -0.06256,-0.4628 -0.231622,-0.58899 -2.619658,-1.95547 -2.886421,-3.02643 -4.867979,-1.77599 -1.662175,1.14265 -3.167914,2.50896 -4.92063,3.52195 -0.685787,0.34451 -0.939986,0.5363 -1.690246,0.67553 -1.314495,0.24394 -2.625701,-0.22492 -3.902699,-0.45283 -3.20933,-0.69936 -6.42315,-1.4164 -9.540351,-2.46493 -2.111772,-0.83319 -2.092685,-0.92604 0.637995,0.72506 0.293571,0.1775 -0.595614,-0.34491 -0.866243,-0.55574 -0.646134,-0.50337 -1.084512,-1.19767 -1.533724,-1.86694 -1.205029,-1.70662 -0.619392,-1.05456 -4.321982,-2.76383 -0.205232,-0.0948 -0.45975,-0.003 -0.674912,0.0661 -1.197189,0.38557 -2.080686,1.47536 -3.06251,2.18079 -1.563709,1.39165 -3.083234,2.81272 -4.572928,4.28367 -0.701064,0.69223 -1.940404,1.97123 -2.747103,2.61232 -0.35837,0.2848 -0.76063,0.50952 -1.140944,0.76427 -0.35506,0.11669 -0.694722,0.30063 -1.065181,0.35007 -0.363953,0.0486 -1.309494,-0.36257 -1.099838,-0.0611 0.468743,0.67394 1.38766,0.88349 2.028586,1.39646 0.429776,0.34396 -0.947557,-0.56363 -1.392666,-0.88751 -1.218242,-0.88644 -2.116071,-1.77666 -3.23147,-2.80158 -1.196821,-1.15768 -2.378853,-2.33082 -3.58957,-3.47396 -0.544002,-0.51363 -1.045025,-1.08248 -1.6535,-1.51782 -1.495962,-1.0703 -3.068871,-2.0304 -4.640863,-2.98554 -0.383083,-0.23276 -0.789829,-0.43565 -1.216414,-0.57332 -0.298551,-0.0964 -0.622266,-0.0803 -0.933397,-0.12049 -1.019445,0.17495 -2.21402,0.48361 -2.156569,1.7461 z" />
  </g>
</svg>
