<?xml version="1.0" encoding="UTF-8" standalone="no"?>
<!-- Created with Inkscape (http://www.inkscape.org/) -->

<svg
   width="210mm"
   height="297mm"
   viewBox="0 0 210 297"
   version="1.1"
   id="svg1"
   inkscape:version="1.3.2 (091e20e, 2023-11-25)"
   sodipodi:docname="n.svg"
   xmlns:inkscape="http://www.inkscape.org/namespaces/inkscape"
   xmlns:sodipodi="http://sodipodi.sourceforge.net/DTD/sodipodi-0.dtd"
   xmlns="http://www.w3.org/2000/svg"
   xmlns:svg="http://www.w3.org/2000/svg">
  <sodipodi:namedview
     id="namedview1"
     pagecolor="#ffffff"
     bordercolor="#000000"
     borderopacity="0.25"
     inkscape:showpageshadow="2"
     inkscape:pageopacity="0.0"
     inkscape:pagecheckerboard="0"
     inkscape:deskcolor="#d1d1d1"
     inkscape:document-units="mm"
     inkscape:zoom="0.67206304"
     inkscape:cx="264.11213"
     inkscape:cy="613.03773"
     inkscape:window-width="1712"
     inkscape:window-height="969"
     inkscape:window-x="0"
     inkscape:window-y="39"
     inkscape:window-maximized="1"
     inkscape:current-layer="layer1" />
  <defs
     id="defs1" />
  <g
     inkscape:label="Katman 1"
     inkscape:groupmode="layer"
     id="layer1">
    <path
       style="fill:#000000;stroke-width:0.264583"
       id="path4"
       d="m 10.870943,195.5139 c 1.006783,3.58716 3.707319,6.41552 6.250239,9.00862 0.570953,0.48032 1.10905,1.00265 1.712859,1.44096 0.59624,0.4328 1.227138,0.82029 1.87797,1.1656 3.52392,1.86968 4.525252,2.81347 7.912799,3.15149 2.885181,0.28789 3.416972,-0.004 6.362234,-0.47142 1.24868,-0.44931 2.556095,-0.76047 3.746037,-1.34794 5.130999,-2.53314 8.987623,-6.97316 12.170389,-11.61222 1.476203,-2.15165 2.868472,-4.36998 4.076851,-6.68268 1.410732,-2.69999 2.510467,-5.55139 3.765698,-8.32708 1.079743,-3.37955 2.333564,-6.70835 3.239225,-10.13866 2.173462,-8.23225 3.438244,-16.44277 4.334359,-24.90581 0.950362,-8.97537 1.410856,-18.97404 1.547545,-27.99309 0.06761,-4.46127 -0.03633,-8.9235 -0.0545,-13.38524 C 67.529614,91.027527 66.341254,76.650661 63.557115,62.519705 62.328334,56.283007 61.518246,53.395681 59.994942,47.379125 58.14573,40.689881 56.249416,33.99882 53.901022,27.463908 53.81177,27.229255 53.726103,26.993209 53.633266,26.75995 c -0.04792,-0.120401 -0.101793,-0.238355 -0.154408,-0.356779 -0.02381,-0.0536 -0.02178,-0.134274 -0.07486,-0.159231 -1.619927,-0.761747 -4.072546,-2.49812 -3.537251,-1.237736 0.375441,0.82066 0.615492,1.706084 0.890013,2.563405 2.899902,8.450874 6.185297,16.763122 9.340892,25.120299 5.451039,14.887974 9.973001,30.096327 14.756839,45.207207 5.245508,15.919675 9.693775,32.081015 14.254684,48.204865 2.678848,9.71243 5.888561,19.26463 8.792125,28.90892 0.940509,3.27036 2.017239,6.5064 2.81324,9.81645 0.61086,2.68924 1.33315,5.35164 2.01964,8.02225 0.7252,2.74128 1.38447,5.50211 2.26905,8.19768 0.47774,1.51294 0.99751,3.01552 1.58845,4.48822 0.71785,1.60003 1.07709,1.70014 3.96903,2.32935 0.29275,0.0637 0.20556,-0.56471 0.27002,-0.85729 0.22373,-1.01553 0.79032,-4.80065 0.86331,-5.2683 0.22829,-1.70772 0.48712,-3.41164 0.68489,-5.12316 0.6794,-5.87981 1.04773,-10.67575 1.53414,-16.67007 0.89298,-11.00478 1.71857,-22.01525 2.57304,-33.02307 0.27554,-3.65678 0.5563,-7.31317 0.82663,-10.97034 0.58948,-7.97465 0.92901,-12.52111 1.38445,-20.45203 0.50887,-8.86131 0.85043,-17.729305 1.19051,-26.59821 0.47903,-11.80284 0.8805,-23.613917 1.76693,-35.395018 0.21474,-3.42649 0.8361,-6.817522 0.81425,-10.254933 -0.20547,-3.136159 -0.41926,-6.271032 -0.55427,-9.411237 -0.0275,-0.667731 -0.0451,-1.335778 -0.0594,-2.003896 0,0 -3.51564,-1.770568 -3.51564,-1.770568 v 0 c 0.0491,0.683422 0.0978,1.366883 0.14453,2.050474 0.21313,3.133293 0.44691,6.265915 0.58437,9.403685 -0.005,3.467783 -0.40808,6.923421 -0.5025,10.389304 -0.53743,11.889944 -0.81949,23.790259 -1.22196,35.685155 -0.12775,4.252762 -0.38162,13.015684 -0.54575,17.169404 -0.54104,13.69225 -1.4604,27.36539 -2.48676,41.02877 -0.60916,7.75068 -1.13017,14.63073 -1.81699,22.37246 -0.79748,8.98903 -1.63432,17.98829 -3.0288,26.90857 -0.26157,1.67327 -0.59551,3.33442 -0.89327,5.00162 -0.23326,1.08694 -0.45259,2.17696 -0.69979,3.26081 -0.13707,0.601 -0.28759,1.19912 -0.45284,1.79298 -0.0581,0.20888 -0.38406,0.47536 -0.21677,0.61328 0.99626,0.82133 2.22016,1.31904 3.34006,1.96163 0.18985,0.10893 -1.02754,-0.71778 -0.38518,-0.53178 -0.67089,-1.44749 -1.15618,-2.9833 -1.6706,-4.49115 -0.93363,-2.69076 -1.64005,-5.45206 -2.35796,-8.20652 -0.65594,-2.66544 -1.32198,-5.32807 -1.97362,-7.99428 -0.78876,-3.38433 -1.98422,-6.65323 -3.04852,-9.95722 -3.141816,-9.70398 -6.504064,-19.33853 -9.314582,-29.14786 C 87.094152,131.25428 82.607239,115.06702 77.400943,99.097993 74.868618,91.052958 72.371277,82.997497 69.86009,74.945882 68.318443,70.002899 66.879549,65.350842 65.214465,60.454619 64.481281,58.298677 63.69818,56.160034 62.940038,54.012742 59.918533,45.786976 56.741676,37.603067 54.210494,29.208851 c -0.217529,-0.849206 -0.412668,-1.734182 -0.721537,-2.555107 -0.102555,-0.191934 -0.0088,-0.08404 -0.15027,-0.155004 -1.199319,-0.601637 -2.391058,-1.21839 -3.593108,-1.814554 -0.05026,-0.02493 0.100947,0.05561 0.135565,0.09977 0.08412,0.107291 0.153254,0.226358 0.215315,0.347753 0.120735,0.236169 0.221417,0.482064 0.332124,0.723096 2.773637,6.565015 4.838506,13.408603 6.862167,20.232527 1.65381,6.125284 2.482646,8.877102 3.821533,15.241958 2.983074,14.181058 4.350872,28.634695 4.776576,43.10864 0.04562,4.47256 0.191963,8.94522 0.136866,13.41767 -0.11153,9.05301 -0.60247,18.92037 -1.636186,27.92115 -0.95654,8.32879 -2.355199,16.61814 -4.631492,24.69817 -0.955809,3.39279 -2.269148,6.67453 -3.403724,10.0118 -1.301157,2.73593 -2.449155,5.55011 -3.903472,8.2078 -1.247505,2.27975 -2.671024,4.46575 -4.186766,6.5767 -3.260035,4.54018 -7.233783,8.86511 -12.390962,11.25418 -1.201605,0.55665 -2.513819,0.834 -3.770728,1.25099 -2.942915,0.38963 -3.511565,0.6712 -6.378488,0.30586 -0.868007,-0.11061 -1.713636,-0.76823 -2.564116,-0.56243 -0.444978,0.10767 1.450052,1.02834 1.000691,0.94074 -0.929142,-0.18112 -2.973416,-1.98675 -3.640621,-2.52871 -2.42862,-2.41883 -5.210654,-5.2545 -6.100571,-8.67295 z" />
  </g>
</svg>
