<?xml version="1.0" encoding="UTF-8" standalone="no"?>
<!-- Created with Inkscape (http://www.inkscape.org/) -->

<svg
   width="210mm"
   height="297mm"
   viewBox="0 0 210 297"
   version="1.1"
   id="svg1"
   inkscape:version="1.3.2 (091e20e, 2023-11-25)"
   sodipodi:docname="s.svg"
   xmlns:inkscape="http://www.inkscape.org/namespaces/inkscape"
   xmlns:sodipodi="http://sodipodi.sourceforge.net/DTD/sodipodi-0.dtd"
   xmlns="http://www.w3.org/2000/svg"
   xmlns:svg="http://www.w3.org/2000/svg">
  <sodipodi:namedview
     id="namedview1"
     pagecolor="#ffffff"
     bordercolor="#000000"
     borderopacity="0.25"
     inkscape:showpageshadow="2"
     inkscape:pageopacity="0.0"
     inkscape:pagecheckerboard="0"
     inkscape:deskcolor="#d1d1d1"
     inkscape:document-units="mm"
     inkscape:zoom="0.80699994"
     inkscape:cx="289.34327"
     inkscape:cy="458.48826"
     inkscape:window-width="1712"
     inkscape:window-height="969"
     inkscape:window-x="0"
     inkscape:window-y="39"
     inkscape:window-maximized="1"
     inkscape:current-layer="layer1" />
  <defs
     id="defs1" />
  <g
     inkscape:label="Katman 1"
     inkscape:groupmode="layer"
     id="layer1">
    <path
       style="fill:#000000;stroke-width:0.264583"
       d="m 110.81682,40.654692 c -5.90149,0 -11.802978,0 -17.704464,0 -2.032452,0 -4.203816,-0.18414 -6.229347,0 -3.201689,0.291063 -5.691884,2.508946 -8.196511,4.262183 -0.522052,0.365437 -1.129504,0.601234 -1.639303,0.983583 -0.618218,0.463664 -1.02108,1.175637 -1.6393,1.639301 -0.195498,0.146624 -0.482923,0.155064 -0.655722,0.327861 -0.335018,0.33502 -0.244888,1.224436 -0.327861,1.639302 -0.182415,0.912075 -1.01627,1.737376 -1.31144,2.622884 -0.114389,0.343167 -0.157641,4.930484 0,5.245766 0.236681,0.473361 0.41904,0.838079 0.65572,1.311442 0.274315,0.548632 0.04015,1.391748 0.327861,1.967161 0.460174,0.920348 3.028252,0.919507 4.262184,1.639303 9.84663,5.743866 -3.245798,-1.750764 4.590047,2.950744 0.905137,0.543082 2.557555,0.590392 3.278603,1.311442 0.07728,0.07728 -0.07728,0.250582 0,0.327859 0.02426,0.02426 1.817872,-0.327859 2.295024,-0.327859 2.73217,0 5.464339,0 8.196509,0 1.328777,0 2.957473,0.260943 4.26219,0 0.47925,-0.09585 0.83218,-0.559871 1.31144,-0.655722 0.32149,-0.0643 0.66833,0.09007 0.98358,0 0.46994,-0.134268 0.84778,-0.501166 1.31144,-0.65572 1.24959,-0.41653 2.45878,-0.622834 3.60646,-1.311441 1.00285,-0.601708 2.45275,-1.797024 3.27861,-2.622884 2.17082,-2.170818 -0.17415,-0.510598 1.96716,-2.295024 0.30271,-0.252257 0.70495,-0.377093 0.98358,-0.65572 1.02889,-1.02889 0.41925,-0.978233 0.98358,-2.295022 0.31044,-0.724361 0.95901,-1.262285 1.31145,-1.967164 1.58322,-3.166438 -0.42239,0.611431 0.32786,-1.639303 0.0489,-0.146621 0.27898,-0.181234 0.32786,-0.327858 0.70547,-2.116421 -0.97686,-5.650553 -2.62289,-6.88507 -0.85145,-0.63859 -0.94999,-0.452286 -1.96716,-0.655719 -0.95281,-0.190564 -2.02412,-0.940795 -2.95074,-1.311442 -0.59284,-0.237135 -0.81795,-0.408974 -1.31145,-0.655722 -0.27297,-0.136485 -1.10347,0.207965 -1.31144,0 -0.0773,-0.07728 0.0773,-0.250582 0,-0.327861 -0.055,-0.05502 -1.49391,-0.983581 -1.6393,-0.983581"
       id="path1" />
    <path
       style="fill:#000000;stroke-width:0.264583"
       d="m 76.719336,45.900458 c -1.901832,-0.218162 -2.644481,1.09609 -4.262186,1.967162 -0.732819,0.394594 -1.562203,0.588986 -2.295022,0.98358 -2.350852,1.265844 -4.347768,3.117086 -6.557208,4.590047 -1.420217,0.946809 -2.818016,2.048137 -4.262186,2.950742 -2.178172,1.361361 -0.490146,-0.04221 -2.295023,1.311442 -1.993042,1.494782 -4.651369,5.290576 -5.901488,7.540791 -0.285814,0.514464 -0.369906,1.124837 -0.65572,1.639301 -0.911437,1.640586 -3.227874,3.65625 -3.934325,5.245766 -0.28072,0.631619 -0.369705,1.337927 -0.65572,1.967164 -0.263694,0.580128 -0.698597,1.069332 -0.983583,1.6393 -2.280203,4.560411 -3.872428,9.730404 -4.590044,14.75372 -0.123645,0.865507 0.07916,1.752179 0,2.622883 -0.251862,2.770484 -0.790925,6.401715 -0.327861,9.180094 0.191487,1.14892 1.67283,2.56947 2.295022,3.60646 2.195078,3.65847 4.988044,6.39942 8.196511,9.18009 2.844493,2.46523 5.91824,4.53788 8.852231,6.88507 0.786783,0.62943 1.48251,1.37132 2.295022,1.96716 0.831413,0.60971 1.791472,1.02961 2.622883,1.63931 0.812514,0.59584 1.456672,1.40826 2.295025,1.96716 0.813321,0.54221 1.774182,0.82647 2.622883,1.31144 3.893588,2.22491 6.147695,3.50409 10.491531,4.59005 0.99472,0.24868 1.191146,0.53306 2.295025,0.65572 3.623778,0.40264 7.489243,0 11.147253,0"
       id="path2" />
    <path
       style="fill:#000000;stroke-width:0.264583"
       d="m 80.653661,94.423798 c 4.778857,0.287038 9.692185,-0.559703 14.425859,0.327861 8.33618,1.563034 15.44317,6.325001 21.96665,11.475111 2.19697,1.73445 4.46512,3.38614 6.5572,5.24577 3.7181,3.30497 7.03951,7.30213 10.16368,11.14725 0.11858,0.14595 3.35871,3.89056 3.60646,4.26219 0.89308,1.33961 2.59084,4.85381 3.2786,6.22935 3.42401,6.848 7.13205,18.93071 4.59005,26.55669 -1.58839,4.76517 -4.421,8.61896 -7.54079,12.45869 -4.53468,5.58115 -9.21818,10.92104 -15.40944,14.75372 -5.39463,3.33954 -11.40519,5.22246 -17.3766,7.21293 -4.83306,1.61102 -9.686638,3.21046 -14.753718,3.93433 -4.982049,0.71172 -10.064539,0.65572 -15.081578,0.65572 -4.86963,0 -9.96469,0.44944 -14.75372,-0.65572 -1.448392,-0.33425 -2.841455,-0.8743 -4.262183,-1.31144 -0.582951,-0.17937 -2.97942,-0.96309 -3.606467,-1.31145 -2.045681,-1.13649 -4.422439,-2.75643 -6.229347,-4.26218 -0.356195,-0.29683 -0.597789,-0.72639 -0.983581,-0.98358 -0.137482,-0.0917 -1.78722,-0.80364 -1.967161,-0.98358 -0.279461,-0.27946 -0.855758,-2.63119 -0.983583,-2.95075 -1.233406,-3.08351 -2.247257,-5.47159 -2.622883,-8.85223 -0.09246,-0.83218 -0.528926,-4.34671 0.327861,-4.9179 2.119407,-1.41294 5.121941,-1.69032 7.540789,-2.29503 1.876914,-0.46923 3.706402,-0.93799 5.573627,-1.31144 0.730552,-0.14611 1.573671,0.18034 2.295023,0 3.072357,-0.76809 6.307436,-1.02049 9.507952,-1.31144 1.306055,-0.11873 2.628268,0.11873 3.934325,0 0.554967,-0.0504 1.084813,-0.27241 1.639303,-0.32786 1.971876,-0.19719 3.943075,-0.0481 5.901486,-0.32786 1.001459,-0.14307 1.990622,-0.79156 2.950745,-0.98358 0.321492,-0.0643 0.672544,0.10367 0.98358,0 0.37382,-0.12461 0.631143,-0.4795 0.983581,-0.65572 1.130813,-0.56541 2.522601,-0.98899 3.606464,-1.6393 1.243475,-0.74609 5.545301,-4.76141 6.22935,-5.90149 0.177805,-0.29635 0.173305,-0.67447 0.327858,-0.98358 0.607724,-1.21545 1.481656,-2.31178 1.967164,-3.60647 0.818253,-2.18201 0.65572,-5.5961 0.65572,-7.86865 0,-0.9435 0.241009,-2.64243 0,-3.60646 -0.03809,-0.15235 -1.52191,-2.11894 -1.639301,-2.29503 -0.950362,-1.42554 -1.336783,-3.15268 -2.295024,-4.59004 -0.478669,-0.718 -1.009703,-0.51138 -1.639301,-0.98358 -0.979789,-0.73485 -2.083519,-1.4278 -2.950744,-2.29503"
       id="path3" />
    <path
       style="fill:#000000;stroke-width:0.264583"
       d="M 24.917391,67.867106 -24.589531,47.539759"
       id="path4" />
  </g>
</svg>
