<?xml version="1.0" encoding="UTF-8" standalone="no"?>
<!-- Created with Inkscape (http://www.inkscape.org/) -->

<svg
   width="210mm"
   height="297mm"
   viewBox="0 0 210 297"
   version="1.1"
   id="svg1"
   inkscape:version="1.3.2 (091e20e, 2023-11-25)"
   sodipodi:docname="t.svg"
   xmlns:inkscape="http://www.inkscape.org/namespaces/inkscape"
   xmlns:sodipodi="http://sodipodi.sourceforge.net/DTD/sodipodi-0.dtd"
   xmlns="http://www.w3.org/2000/svg"
   xmlns:svg="http://www.w3.org/2000/svg">
  <sodipodi:namedview
     id="namedview1"
     pagecolor="#ffffff"
     bordercolor="#000000"
     borderopacity="0.25"
     inkscape:showpageshadow="2"
     inkscape:pageopacity="0.0"
     inkscape:pagecheckerboard="0"
     inkscape:deskcolor="#d1d1d1"
     inkscape:document-units="mm"
     inkscape:zoom="0.72536986"
     inkscape:cx="112.35647"
     inkscape:cy="543.17118"
     inkscape:window-width="1712"
     inkscape:window-height="969"
     inkscape:window-x="0"
     inkscape:window-y="39"
     inkscape:window-maximized="1"
     inkscape:current-layer="layer1" />
  <defs
     id="defs1" />
  <g
     inkscape:label="Katman 1"
     inkscape:groupmode="layer"
     id="layer1">
    <path
       style="fill:#ffff00;stroke-width:0.264583"
       id="path1"
       d="m 23.409258,53.436779 c 0.111298,2.959642 0.105002,5.922261 0.08237,8.883411 -0.0069,1.874168 -0.108712,3.747257 -0.0074,5.619761 0.292239,2.597692 0.770449,5.166841 1.058176,7.765711 0.332691,3.774488 0.393285,7.566525 0.383163,11.353565 0.07074,1.060479 -0.176819,2.156743 0.06996,3.203307 0.48188,1.44067 0.104307,0.437986 3.565425,2.2059 0.08024,0.04098 0.157813,-0.08933 0.243334,-0.117684 0.60841,-0.201739 1.327926,-0.247078 1.949874,-0.328752 5.608695,-0.546225 11.254163,-0.272675 16.865816,0.06498 7.919689,0.532047 15.739375,1.906174 23.550774,3.249525 9.187974,1.467617 18.395088,2.807086 27.599706,4.16457 8.524724,1.273427 17.080064,2.321107 25.672004,3.007547 5.79939,0.48631 11.6106,0.80013 17.42513,1.03031 0.80505,-0.0695 3.58839,0.35164 4.30582,-0.12669 0.10553,-0.0704 0.16954,-0.18866 0.25431,-0.28299 0.0493,-0.13117 0.11623,-0.25699 0.14783,-0.3935 0.17049,-0.73662 0.0591,-1.61326 0.0409,-2.35212 -0.0119,-0.483806 -0.0257,-0.967559 -0.0385,-1.451339 -0.0146,-0.620522 -0.0293,-1.241044 -0.0439,-1.861566 -0.12901,-5.810401 -0.14772,-11.622461 -0.14431,-17.434049 0.0104,-5.178656 0.0136,-10.357387 0.0642,-15.535841 0.0263,-2.139583 0.0535,-4.279297 0.10039,-6.418551 -0.0403,-0.806355 0.11702,-1.640483 -0.0937,-2.428497 -0.68813,-1.415275 -0.26367,-0.639537 -3.63511,-2.31327 -0.11249,-0.05585 -0.21442,0.131386 -0.32653,0.188002 -0.58046,0.293121 -1.22023,0.43384 -1.84352,0.599011 -5.80692,0.994513 -11.71992,1.201846 -17.59524,1.458407 -12.09421,0.583121 -24.201343,0.613199 -36.306226,0.586275 -7.386516,-0.0094 -14.773733,-0.1645 -22.159796,-0.0087 -2.627998,0.05544 -5.174234,0.165926 -7.796747,0.268769 -4.37384,0.235218 -8.740637,0.579713 -13.117578,0.75533 -3.162732,0.141412 -6.330691,0.03655 -9.488512,-0.160602 -3.17178,-0.321416 -6.339355,-0.698696 -9.500574,-1.113639 -1.480731,-0.192376 -0.780692,-0.100928 -2.100157,-0.274045 0,0 3.09778,2.308511 3.09778,2.308511 v 0 c 1.28152,0.143449 0.599895,0.06562 2.044734,0.234744 3.159244,0.381272 6.318682,0.774697 9.486673,1.07238 3.16933,0.179673 6.347589,0.295904 9.520573,0.135141 4.297844,-0.217263 8.579543,-0.648573 12.87313,-0.931614 2.716363,-0.144732 4.904933,-0.274391 7.650988,-0.362193 7.316218,-0.233924 14.636731,-0.125148 21.955043,-0.132112 12.177289,0.01479 24.356169,5.8e-5 36.527409,-0.441238 6.0332,-0.180009 12.10114,-0.311306 18.07959,-1.209056 1.14027,-0.27369 0.71339,-0.144478 1.5959,-0.431686 0.11519,-0.03749 0.22481,-0.09882 0.34494,-0.114387 0.0574,-0.0074 0.2158,0.07875 0.16675,0.04809 -3.43366,-2.14666 -4.1032,-2.821019 -3.07304,-1.81538 0.43476,0.646779 0.0957,1.570511 0.20098,2.302293 0.0461,2.173197 0.0731,4.346826 0.0993,6.520333 0.0504,5.202465 0.0544,10.405197 0.076,15.607837 0.0188,5.783749 0.0152,11.567554 -0.0247,17.351224 -0.0107,1.883608 0.094,3.819099 -0.16276,5.684118 -0.66543,0.58689 -3.37704,0.17641 -4.18717,0.27555 -5.72669,-0.11793 -11.44854,-0.40182 -17.15877,-0.85623 C 113.14406,99.810024 104.62,98.776072 96.125844,97.520039 86.882705,96.165219 77.634337,94.841019 68.424713,93.269386 60.605392,91.937564 52.774257,90.606702 44.85215,90.049669 39.118378,89.681888 33.359122,89.393386 27.618325,89.799963 c -1.464771,0.157361 -0.622081,0.05029 -1.725821,0.215191 -0.111801,0.01669 -0.222825,0.05166 -0.335788,0.04745 -0.04552,-0.0016 -0.159694,-0.08763 -0.120487,-0.06445 3.327136,1.967045 4.576744,2.001247 3.164639,1.938536 -0.511032,-0.887968 -0.10583,-2.197097 -0.289544,-3.158194 -0.113675,-3.802062 -0.187616,-7.606546 -0.413599,-11.4041 -0.217583,-2.580573 -0.676873,-5.122547 -0.958324,-7.695271 -0.08291,-1.881457 -0.04072,-3.767754 -0.09465,-5.65042 -0.02225,-2.93315 -0.03076,-5.867898 0.08236,-8.799476 z" />
    <path
       style="fill:#ffff00;stroke-width:0.264583"
       id="path2"
       d="m 69.377218,93.330531 c 0.113556,3.883285 0.124195,7.769139 0.152887,11.653799 0.07511,7.92938 0.07191,15.85929 0.158964,23.7885 0.146182,8.69401 0.546989,17.38024 0.800198,26.07124 0.176173,9.49365 0.07825,18.98989 -0.103529,28.4826 -0.04733,3.90268 -0.143674,7.80108 -0.637252,11.67542 0.0093,0.80436 -0.681439,2.93041 -0.342878,3.65672 0.0957,0.20531 0.26112,0.39644 0.464637,0.4959 1.471523,0.71916 3.010188,1.2919 4.515284,1.93785 4.726543,-0.53877 9.434422,-1.18598 14.185011,-1.4747 3.033707,-0.11251 6.067197,0.0262 9.094324,0.21647 0.453401,-0.0272 1.681255,0.35602 1.947471,-0.19033 0.08418,-0.17275 0.102359,-0.37045 0.153538,-0.55568 0.01384,-0.35504 0.03922,-0.70982 0.04151,-1.06513 0.0036,-0.56357 -0.06542,-4.77002 -0.06642,-4.8423 -0.06027,-4.33012 -0.100476,-8.66046 -0.142148,-12.99078 -0.338537,-14.686 0.334402,-29.35982 1.120065,-44.01997 0.72725,-13.3876 1.51425,-26.77195 2.29809,-40.156355 0.27906,-2.791042 0.30676,-5.630725 0.81834,-8.396944 0.52626,-1.260716 0.11168,-0.209616 -3.4925,-1.758664 -0.0598,-0.02569 0.0171,0.129088 0.0217,0.193992 0.0159,0.224484 0.011,0.451652 0.01,0.67649 -0.003,0.41135 -0.006,0.822724 -0.0106,1.234061 0,0 3.53904,1.805165 3.53904,1.805165 v 0 c -0.001,-0.412406 0.003,-0.824825 0.005,-1.237221 0.002,-2.088589 0.15722,-0.969346 -3.54951,-2.877775 -0.0373,-0.01918 -0.016,0.08232 -0.024,0.123479 -0.22254,2.890562 -0.20199,5.796245 -0.32303,8.691057 -0.283019,13.496385 -0.925798,26.980375 -1.704649,40.456735 -0.847442,14.58161 -1.701541,29.17226 -1.614299,43.78548 -0.04866,6.16894 0.0087,12.35282 -0.387988,18.51087 -0.01913,0.10703 -0.01439,0.22123 -0.05739,0.3211 -0.04502,0.10455 -1.543627,-0.004 -1.7102,-0.004 -2.967657,-0.11539 -5.939931,-0.17306 -8.907958,-0.0278 -2.682978,0.183 -2.512059,0.14732 -5.229092,0.432 -3.027992,0.31725 -6.046269,0.78761 -9.093724,0.87708 0.734026,0.58604 1.526357,1.10571 2.202074,1.75812 0.149828,0.14466 -0.448172,-0.0511 -0.591029,-0.20264 -0.419086,-0.4446 0.18818,-3.02002 0.195964,-3.60596 0.457734,-3.94506 0.453308,-7.90616 0.345485,-11.87321 -0.05734,-9.5173 0.0195,-19.03427 -0.0088,-28.55157 -0.177842,-8.69128 -0.60561,-17.37291 -0.796708,-26.0638 -0.06466,-7.88923 0.01593,-15.77826 0.0717,-23.6674 0.02852,-3.83272 0.03828,-7.666705 0.152885,-11.497999 z" />
    <path
       style="fill:#ffff00;stroke-width:1.37861"
       d="m 277.44392,739.27803 c 0.65852,-5.87632 0.84907,-50.38809 0.42344,-98.91506 -0.42563,-48.52697 -1.14281,-130.8815 -1.59374,-183.01008 -0.45092,-52.12858 -0.29436,-94.79666 0.34792,-94.81794 4.02311,-0.13335 97.91391,14.48278 98.96027,15.4053 1.38451,1.22065 -0.62695,60.622 -4.0779,120.4262 -4.17112,72.28475 -6.17304,119.48718 -6.17304,145.55133 0,14.85874 -0.40987,43.86676 -0.91081,64.46226 l -0.91081,37.44637 -22.87016,0.012 c -12.57859,0.007 -30.62483,0.93176 -40.10275,2.05593 -9.47793,1.12417 -18.82045,2.04934 -20.76117,2.05593 l -3.52858,0.012 z"
       id="path3"
       transform="scale(0.26458333)" />
    <path
       style="fill:#ffff00;stroke-width:1.37861"
       d="m 485.26968,380.90648 c -16.54371,-0.99853 -56.88666,-4.62968 -75.47874,-6.79362 l -19.64515,-2.28652 v -7.76438 c 0,-7.88812 2.27419,-29.18011 3.57759,-33.495 0.5217,-1.7271 -0.33076,-2.6176 -3.15462,-3.29534 -2.12821,-0.51078 -5.50811,-1.75327 -7.51087,-2.76108 -3.34946,-1.68549 -3.70713,-1.58709 -4.46164,1.22743 -0.45115,1.6829 -0.82875,11.9196 -0.8391,22.74823 -0.0142,14.83111 -0.45931,19.85745 -1.80432,20.37357 -1.99066,0.76389 -65.96165,-8.58933 -122.97844,-17.9807 -20.47231,-3.37205 -44.8866,-7.07433 -54.25397,-8.22728 -22.59116,-2.78055 -64.13621,-5.23451 -78.93681,-4.66258 l -11.87336,0.45882 -0.96086,-24.12562 c -0.52848,-13.2691 -1.85447,-30.91029 -2.94667,-39.20265 -1.09219,-8.29237 -1.9858,-24.26698 -1.9858,-35.49913 0,-18.54155 0.22216,-20.41945 2.41256,-20.39326 1.32691,0.0159 9.85704,0.92707 18.95585,2.02491 21.36514,2.57785 55.74124,2.54353 86.16294,-0.086 17.65535,-1.52606 58.69537,-2.41783 153.02538,-3.32513 114.77659,-1.10395 161.98982,-2.45062 174.04914,-4.96444 l 3.79117,-0.79028 v 84.89387 84.89387 l -23.78097,-0.25501 c -13.07953,-0.14026 -27.19302,-0.46097 -31.36331,-0.71266 z"
       id="path4"
       transform="scale(0.26458333)" />
  </g>
</svg>
