<?xml version="1.0" encoding="UTF-8" standalone="no"?>
<!-- Created with Inkscape (http://www.inkscape.org/) -->

<svg
   width="210mm"
   height="297mm"
   viewBox="0 0 210 297"
   version="1.1"
   id="svg1"
   inkscape:version="1.3.2 (091e20e, 2023-11-25)"
   sodipodi:docname="y.svg"
   xmlns:inkscape="http://www.inkscape.org/namespaces/inkscape"
   xmlns:sodipodi="http://sodipodi.sourceforge.net/DTD/sodipodi-0.dtd"
   xmlns="http://www.w3.org/2000/svg"
   xmlns:svg="http://www.w3.org/2000/svg">
  <sodipodi:namedview
     id="namedview1"
     pagecolor="#ffffff"
     bordercolor="#000000"
     borderopacity="0.25"
     inkscape:showpageshadow="2"
     inkscape:pageopacity="0.0"
     inkscape:pagecheckerboard="0"
     inkscape:deskcolor="#d1d1d1"
     inkscape:document-units="mm"
     inkscape:zoom="0.83518528"
     inkscape:cx="248.44787"
     inkscape:cy="487.31702"
     inkscape:window-width="1712"
     inkscape:window-height="969"
     inkscape:window-x="0"
     inkscape:window-y="39"
     inkscape:window-maximized="1"
     inkscape:current-layer="layer1" />
  <defs
     id="defs1" />
  <g
     inkscape:label="Katman 1"
     inkscape:groupmode="layer"
     id="layer1">
    <path
       style="fill:#000000;stroke-width:0.264583"
       id="path1"
       d="m 35.303309,40.86784 c 0.609825,3.968496 2.152287,7.727048 3.610435,11.442713 2.472335,5.79506 5.206574,11.474043 7.862155,17.186619 1.467585,3.128304 2.836724,6.301875 4.329223,9.418373 1.973681,4.190762 3.996127,8.357856 6.122376,12.473347 2.243672,4.209947 4.492845,8.447876 7.300323,12.318298 0.411795,0.56771 0.856821,1.11055 1.285232,1.66583 1.287097,1.53278 2.687685,3.0316 4.441909,4.03857 4.188127,2.4041 2.849642,1.87258 5.318205,2.73503 1.68579,0.46318 3.434683,0.62633 5.168064,0.40376 1.360519,-0.21811 2.447316,-0.924 3.384362,-1.89823 0.153445,-0.24583 0.333179,-0.47708 0.460335,-0.73747 0.69361,-1.42039 0.919676,-3.07249 1.109655,-4.61844 0.315862,-2.5703 0.243511,-2.59918 0.30199,-5.319793 C 85.770126,93.379485 84.215286,86.895449 82.314369,80.598557 81.855888,79.079814 81.339422,77.579185 80.851948,76.069496 77.857733,67.073906 73.907194,58.448291 69.65257,49.990599 67.601292,46.003159 65.402718,42.074896 62.640085,38.529564 61.260439,36.759041 60.735111,36.256605 59.238781,34.638249 55.562319,30.827255 50.998138,28.12941 46.224271,25.902785 43.95104,24.908495 41.532212,24.34437 39.055688,24.274963 c -1.975999,-0.08264 -3.839554,0.472012 -5.637734,1.231087 -2.410584,1.214842 -2.645196,2.456579 -3.026121,5.011407 -0.367554,3.549435 -0.245846,7.128486 0.263048,10.655368 0.20923,1.061501 0.329256,2.214997 0.912921,3.157871 0.304641,0.492125 0.513451,0.662813 0.918713,1.085937 0.604197,0.554723 1.254588,1.055132 1.897663,1.563029 0,0 3.588914,1.436291 3.588914,1.436291 v 0 C 37.332245,47.91657 36.686709,47.42262 36.066155,46.897877 35.665285,46.520163 35.449777,46.352785 35.125911,45.917471 34.461495,45.024415 34.278916,43.882103 34.032756,42.826328 33.41012,39.344676 33.239403,35.787425 33.701064,32.271414 c 0.425129,-2.400043 0.630142,-3.509584 2.911982,-4.632121 1.767727,-0.732848 3.603324,-1.203388 5.534983,-1.099164 2.415114,0.121213 4.770096,0.671155 6.97879,1.673466 0.506976,0.241665 1.571845,1.284316 1.520929,0.725 -0.05477,-0.60167 -2.10678,-1.166759 -1.541688,-0.953031 0.610383,0.230854 1.134539,0.64694 1.679911,1.00531 1.869771,1.228643 3.57341,2.692477 5.156142,4.269113 1.52014,1.603775 2.077963,2.128227 3.484726,3.883835 2.844845,3.550306 5.126932,7.494209 7.253354,11.504371 4.329853,8.428728 8.312869,17.049173 11.285902,26.062152 0.479743,1.501208 0.990794,2.99277 1.439228,4.503626 1.847154,6.223376 3.32962,12.643707 3.465721,19.157505 -0.03672,0.937863 -0.03766,1.877804 -0.110169,2.813584 -0.09362,1.20818 -0.376955,3.12874 -0.659432,4.35392 -0.182526,0.79166 -0.457539,1.69674 -0.846844,2.42934 -0.123693,0.23277 -0.295127,0.43684 -0.442688,0.65526 -0.910624,0.89007 -1.943576,1.52201 -3.233211,1.68394 -1.689142,0.1704 -3.390688,-0.009 -5.014703,-0.51246 -1.814422,-0.69266 -1.184735,-0.5228 1.216496,0.98686 0.361045,0.22699 -0.740902,-0.42466 -1.091591,-0.66735 -1.334149,-0.92328 -2.475834,-2.08732 -3.532058,-3.3103 -0.448794,-0.55643 -0.916205,-1.09834 -1.346388,-1.66928 -2.885797,-3.83 -5.169987,-8.069071 -7.389731,-12.305302 C 58.347091,88.755211 56.404049,84.617461 54.503126,80.45974 52.990006,77.30568 51.578015,74.103758 50.017452,70.972034 47.271005,65.281373 44.486676,59.601271 42.054081,53.76751 40.689037,50.171961 39.22391,46.521295 38.826948,42.663223 Z" />
    <path
       style="fill:#000000;stroke-width:0.264583"
       id="path2"
       d="m 83.486531,82.881294 c -0.151053,-3.20553 -0.16978,-6.417683 0.06092,-9.620419 0.07731,-1.073317 0.197133,-2.143149 0.295698,-3.214722 0.694822,-5.724929 2.011106,-11.400194 4.217188,-16.740965 0.411719,-0.996746 0.891342,-1.964071 1.337014,-2.946106 1.614887,-3.322085 3.659952,-6.413029 6.110602,-9.176504 1.087885,-1.226754 1.91139,-2.001488 3.070765,-3.144166 1.316635,-1.220546 2.697982,-2.386758 4.224902,-3.339486 1.31514,-0.820584 2.73505,-1.453091 4.14295,-2.091668 2.6349,-1.179442 5.39052,-2.012556 8.20397,-2.634568 1.99514,-0.392279 4.01307,-0.911238 6.05935,-0.754467 0.45234,0.102746 0.66036,0.118359 1.06901,0.326792 0.13532,0.06902 0.51513,0.321556 0.38167,0.249018 -4.5185,-2.455802 -3.38131,-2.309945 -2.38893,-0.912686 0.90856,1.967236 1.21718,4.180168 1.57603,6.302471 0.38393,2.601999 0.57845,5.23163 0.57815,7.861268 -0.12872,2.800911 -1.13959,5.440135 -2.16564,8.015528 -1.66993,3.89015 -3.82246,7.545453 -6.0482,11.137712 -2.06237,3.247879 -4.14987,6.481016 -6.31302,9.662824 -1.73663,2.481696 -3.51287,4.937429 -5.3564,7.340931 -2.09701,2.850525 -4.413538,5.525269 -6.738593,8.189086 -1.969895,2.19764 -3.883213,4.444842 -5.677599,6.788148 -1.520208,2.06307 -2.968794,4.176276 -4.490241,6.238535 -0.980657,1.33172 -2.021358,2.61917 -3.006355,3.94723 -0.32041,0.40651 -0.634743,0.80859 -1.027355,1.14788 0,0 3.375908,2.08372 3.375908,2.08372 v 0 c 0.378656,-0.38281 0.702241,-0.80704 1.017715,-1.24283 0.942779,-1.35141 1.927624,-2.67464 2.896457,-4.00747 1.515216,-2.06351 2.970144,-4.168981 4.472011,-6.242076 1.776296,-2.343296 3.682863,-4.582197 5.612011,-6.800654 2.303191,-2.693533 4.635991,-5.365287 6.783491,-8.186886 1.85438,-2.404279 3.6212,-4.876755 5.34902,-7.373199 2.12776,-3.209142 4.16846,-6.475042 6.22783,-9.728269 2.23279,-3.609861 4.41447,-7.268903 6.16443,-11.142247 1.07916,-2.598147 2.13658,-5.259363 2.31516,-8.098694 0.0201,-2.658258 -0.26917,-5.309825 -0.60524,-7.944009 -0.32965,-2.142392 -0.63407,-4.328977 -1.35876,-6.378654 -0.0517,-0.0858 -0.45702,-0.786114 -0.56448,-0.85815 -1.70685,-1.144172 -3.19468,-2.435582 -5.20773,-2.669825 -2.04139,-0.0204 -4.03606,0.489352 -6.0226,0.905465 -2.82148,0.654518 -5.58682,1.50492 -8.22616,2.712749 -1.42094,0.653822 -2.84445,1.307478 -4.161829,2.159566 -1.52177,0.984292 -2.880945,2.191401 -4.190336,3.437099 -1.147419,1.158692 -1.9748,1.954691 -3.044987,3.201228 -2.423612,2.822985 -4.427209,5.974855 -6.037871,9.32652 -0.444029,0.991719 -0.921609,1.96909 -1.332089,2.975163 -2.192745,5.37433 -3.486732,11.071378 -4.278776,16.807666 -0.11798,1.06648 -0.253301,2.131185 -0.353935,3.199442 -0.296075,3.142912 -0.348184,6.293843 -0.45147,9.446109 z" />
    <path
       style="fill:#000000;stroke-width:0.264583"
       id="path3"
       d="m 64.448538,106.12781 c 0.05445,1.79159 0.0619,3.58439 0.0756,5.37667 -0.02553,3.56546 0.291142,7.12037 0.589047,10.66972 0.553649,6.39325 1.116042,12.78576 1.708362,19.17554 0.515586,5.54016 0.819377,11.09578 1.119762,16.65061 0.173976,3.48 0.504946,6.94323 1.077999,10.37981 0.36444,2.44735 1.176399,4.75945 2.489007,6.86131 0.350586,0.56139 0.747133,1.09273 1.120698,1.6391 1.951337,2.5651 4.275728,4.83519 6.868928,6.74842 1.433404,1.05754 2.043475,1.37725 3.533656,2.2696 2.122638,1.02906 5.400439,3.66588 8.244564,3.47544 0.921798,-0.0617 1.08761,-0.2434 1.897814,-0.64436 2.771995,-1.80532 3.500165,-4.78048 4.245025,-7.81298 1.078643,-5.62868 0.688105,-11.36988 0.132729,-17.03037 -0.490353,-4.5688 -1.272421,-9.09817 -2.028386,-13.62838 -0.75483,-4.4194 -1.420416,-8.85102 -1.86032,-13.31311 -0.457957,-4.20217 -0.53091,-8.43066 -0.843145,-12.64298 -0.355195,-3.63989 -1.096177,-7.22371 -1.849607,-10.79733 -0.493165,-2.23302 -0.8069,-4.49845 -1.166069,-6.75512 -0.286586,-1.59348 -0.593696,-3.18363 -0.819533,-4.78721 -0.09541,-0.67044 -0.112419,-1.34778 -0.130011,-2.023579 0,0 -3.47576,-1.763474 -3.47576,-1.763474 v 0 c 0.0057,0.687102 -0.0067,1.378117 0.08554,2.060663 0.270454,1.62109 0.644184,3.22326 0.928582,4.84193 0.352692,2.27664 0.634521,4.56811 1.210773,6.80363 0.837022,3.55178 1.560202,7.13196 1.911326,10.76915 0.351266,4.2288 0.506613,8.47166 0.933108,12.69482 0.415677,4.46103 1.050129,8.89395 1.798175,13.31133 0.77498,4.54598 1.60379,9.08623 2.157849,13.66602 0.593016,5.60586 1.009063,11.30086 -0.175742,16.86558 -0.763706,2.82242 -1.574188,5.83128 -4.250743,7.42443 -0.285019,0.12193 -0.556164,0.28354 -0.855056,0.36581 -1.003181,0.27612 -2.061263,0.0524 -3.017279,-0.27991 -0.438309,-0.15234 -1.545545,-0.91202 -1.289212,-0.52521 0.355981,0.53716 1.086673,0.69298 1.630011,1.03947 -1.5117,-0.87689 -2.164437,-1.20971 -3.617756,-2.25179 -2.589745,-1.85692 -4.908527,-4.08021 -6.839813,-6.6162 -0.3674,-0.53165 -0.758005,-1.04801 -1.102206,-1.59497 -1.293014,-2.05472 -2.099726,-4.33375 -2.494214,-6.72365 -0.62357,-3.44518 -0.994569,-6.92427 -1.244135,-10.41606 -0.367273,-5.57923 -0.687922,-11.16275 -1.246221,-16.72753 -0.61989,-6.36182 -1.167003,-12.73101 -1.592088,-19.10905 -0.219758,-3.51249 -0.437121,-7.02978 -0.413221,-10.55078 0.0136,-1.7666 0.02061,-3.53374 0.0756,-5.29963 z" />
  </g>
</svg>
